<mxfile host="app.diagrams.net" agent="Mozilla/5.0 (Windows NT 10.0; Win64; x64) AppleWebKit/537.36 (KHTML, like Gecko) Chrome/134.0.0.0 Safari/537.36 Edg/134.0.0.0" version="26.1.1">
  <diagram name="Page-1" id="4xfQ2MLht4sYgVVxXMw-">
    <mxGraphModel dx="1062" dy="587" grid="1" gridSize="10" guides="1" tooltips="1" connect="1" arrows="1" fold="1" page="1" pageScale="1" pageWidth="827" pageHeight="1169" math="0" shadow="0">
      <root>
        <mxCell id="0" />
        <mxCell id="1" parent="0" />
        <mxCell id="aVhCBYOH4ArjlUJ8OEMJ-43" value="" style="group" parent="1" vertex="1" connectable="0">
          <mxGeometry x="97" y="267" width="610" height="190" as="geometry" />
        </mxCell>
        <mxCell id="aVhCBYOH4ArjlUJ8OEMJ-1" value="Architecture" style="swimlane;html=1;startSize=20;horizontal=0;childLayout=flowLayout;flowOrientation=west;resizable=1;interRankCellSpacing=50;containerType=tree;fontSize=12;spacingTop=0;arcSize=15;movable=1;rotatable=1;deletable=1;editable=1;locked=0;connectable=1;absoluteArcSize=0;resizeWidth=1;resizeHeight=1;autosize=0;container=0;" parent="aVhCBYOH4ArjlUJ8OEMJ-43" vertex="1">
          <mxGeometry y="1" width="610" height="190" as="geometry">
            <mxRectangle x="150" y="130" width="40" height="90" as="alternateBounds" />
          </mxGeometry>
        </mxCell>
        <mxCell id="aVhCBYOH4ArjlUJ8OEMJ-2" value="ESP32" style="whiteSpace=wrap;html=1;arcSize=15;container=0;" parent="aVhCBYOH4ArjlUJ8OEMJ-43" vertex="1">
          <mxGeometry x="42.5" y="20" width="105" height="60" as="geometry" />
        </mxCell>
        <mxCell id="aVhCBYOH4ArjlUJ8OEMJ-5" value="Server" style="whiteSpace=wrap;html=1;arcSize=15;container=0;" parent="aVhCBYOH4ArjlUJ8OEMJ-43" vertex="1">
          <mxGeometry x="200" y="73.28" width="90" height="43.44" as="geometry" />
        </mxCell>
        <mxCell id="aVhCBYOH4ArjlUJ8OEMJ-6" value="" style="html=1;rounded=1;curved=0;sourcePerimeterSpacing=0;targetPerimeterSpacing=0;startSize=6;endSize=6;noEdgeStyle=1;orthogonal=1;arcSize=15;" parent="aVhCBYOH4ArjlUJ8OEMJ-43" source="aVhCBYOH4ArjlUJ8OEMJ-2" target="aVhCBYOH4ArjlUJ8OEMJ-5" edge="1">
          <mxGeometry relative="1" as="geometry">
            <Array as="points">
              <mxPoint x="162" y="50" />
              <mxPoint x="188" y="86.63999999999999" />
            </Array>
          </mxGeometry>
        </mxCell>
        <mxCell id="aVhCBYOH4ArjlUJ8OEMJ-16" value="HTTP POST" style="edgeLabel;html=1;align=center;verticalAlign=middle;resizable=0;points=[];arcSize=15;container=0;" parent="aVhCBYOH4ArjlUJ8OEMJ-6" vertex="1" connectable="0">
          <mxGeometry x="-0.3512" y="-1" relative="1" as="geometry">
            <mxPoint x="17" as="offset" />
          </mxGeometry>
        </mxCell>
        <mxCell id="aVhCBYOH4ArjlUJ8OEMJ-42" style="edgeStyle=orthogonalEdgeStyle;rounded=0;orthogonalLoop=1;jettySize=auto;html=1;exitX=1;exitY=0.5;exitDx=0;exitDy=0;entryX=0;entryY=0.5;entryDx=0;entryDy=0;" parent="aVhCBYOH4ArjlUJ8OEMJ-43" source="aVhCBYOH4ArjlUJ8OEMJ-7" target="aVhCBYOH4ArjlUJ8OEMJ-41" edge="1">
          <mxGeometry relative="1" as="geometry" />
        </mxCell>
        <mxCell id="aVhCBYOH4ArjlUJ8OEMJ-7" value="FrontEnd" style="whiteSpace=wrap;html=1;arcSize=15;movable=1;movableLabel=0;container=0;" parent="aVhCBYOH4ArjlUJ8OEMJ-43" vertex="1">
          <mxGeometry x="381" y="71.25" width="90" height="47.5" as="geometry" />
        </mxCell>
        <mxCell id="aVhCBYOH4ArjlUJ8OEMJ-9" value="" style="html=1;rounded=1;curved=0;sourcePerimeterSpacing=0;targetPerimeterSpacing=0;startSize=6;endSize=6;noEdgeStyle=1;orthogonal=1;shadow=0;arcSize=15;entryX=0;entryY=0.5;entryDx=0;entryDy=0;" parent="aVhCBYOH4ArjlUJ8OEMJ-43" source="aVhCBYOH4ArjlUJ8OEMJ-5" target="aVhCBYOH4ArjlUJ8OEMJ-7" edge="1">
          <mxGeometry relative="1" as="geometry">
            <mxPoint x="2448" y="1180" as="targetPoint" />
            <Array as="points">
              <mxPoint x="302" y="95" />
              <mxPoint x="328" y="95" />
            </Array>
          </mxGeometry>
        </mxCell>
        <mxCell id="aVhCBYOH4ArjlUJ8OEMJ-20" value="WebSocket" style="edgeLabel;html=1;align=center;verticalAlign=middle;resizable=0;points=[];container=0;" parent="aVhCBYOH4ArjlUJ8OEMJ-9" vertex="1" connectable="0">
          <mxGeometry x="0.0364" y="1" relative="1" as="geometry">
            <mxPoint as="offset" />
          </mxGeometry>
        </mxCell>
        <mxCell id="aVhCBYOH4ArjlUJ8OEMJ-10" value="" style="html=1;rounded=1;curved=0;sourcePerimeterSpacing=0;targetPerimeterSpacing=0;startSize=6;endSize=6;noEdgeStyle=1;orthogonal=1;entryX=0;entryY=0.5;entryDx=0;entryDy=0;arcSize=15;" parent="aVhCBYOH4ArjlUJ8OEMJ-43" source="aVhCBYOH4ArjlUJ8OEMJ-11" target="aVhCBYOH4ArjlUJ8OEMJ-5" edge="1">
          <mxGeometry relative="1" as="geometry">
            <mxPoint x="4930" y="2518" as="sourcePoint" />
            <Array as="points">
              <mxPoint x="162" y="140" />
              <mxPoint x="188" y="103.36000000000001" />
            </Array>
          </mxGeometry>
        </mxCell>
        <mxCell id="aVhCBYOH4ArjlUJ8OEMJ-11" value="ESP32" style="whiteSpace=wrap;html=1;arcSize=15;container=0;" parent="aVhCBYOH4ArjlUJ8OEMJ-43" vertex="1">
          <mxGeometry x="40" y="110" width="110" height="60" as="geometry" />
        </mxCell>
        <mxCell id="aVhCBYOH4ArjlUJ8OEMJ-41" value="Client" style="whiteSpace=wrap;html=1;arcSize=15;movable=1;movableLabel=0;container=0;" parent="aVhCBYOH4ArjlUJ8OEMJ-43" vertex="1">
          <mxGeometry x="501" y="71.25" width="90" height="47.5" as="geometry" />
        </mxCell>
      </root>
    </mxGraphModel>
  </diagram>
</mxfile>
